<svg xmlns="http://www.w3.org/2000/svg" width="512" height="512" viewBox="0 0 135.467 135.467"><circle transform="scale(-1 1)" fill="#2f7ae5" r="64.259" cy="67.733" cx="-67.733"/><path fill="#1558ae" d="M104.554 15.071a-64.26 64.26 0 0127.438 52.662-64.26 64.26 0 01-64.26 64.26-64.26 64.26 0 01-42.548-16.105-70.885 70.885 0 0016 1.83-70.885 70.885 0 0070.885-70.885-70.885 70.885 0 00-7.514-31.762z"/><path fill="#3e88ef" d="M67.782 3.474a-64.26 64.26 0 0131.234 8.13-72.67 72.67 0 00-16.535-1.906-72.67 72.67 0 00-72.67 72.67-72.67 72.67 0 002.037 17.088-64.26 64.26 0 01-8.375-31.723-64.26 64.26 0 0164.26-64.259-64.26 64.26 0 01.049 0z"/><circle transform="scale(-1 1)" stroke-width="2.962" stroke="#144b98" fill="none" cx="-67.733" cy="67.733" r="64.259"/><circle r="6.556" cy="41.173" cx="55.942" fill="#1558ae" paint-order="stroke fill markers"/><circle cx="57.75" cy="74.883" r="10.841" fill="#1558ae" paint-order="stroke fill markers"/><circle cx="112.785" cy="59.044" r="8.197" fill="#2f7ae5" paint-order="stroke fill markers"/><circle r="12.831" cy="99.418" cx="88.601" fill="#2f7ae5" paint-order="stroke fill markers"/></svg>