<svg xmlns="http://www.w3.org/2000/svg" width="512" height="512" viewBox="0 0 135.467 135.467"><g transform="translate(-8.095 -8.095) scale(1.11952)"><circle cx="67.733" cy="67.733" r="57.399" fill="#2f7ae5"/><circle r="10.391" cy="78.213" cx="84.202" fill="#1558ae" paint-order="stroke fill markers"/><circle r="5.807" cy="41.46" cx="90.758" fill="#1558ae" paint-order="stroke fill markers"/><path d="M34.843 20.693a57.399 57.399 0 00-24.509 47.04 57.399 57.399 0 0057.4 57.4 57.399 57.399 0 0038.005-14.386 63.317 63.317 0 01-14.291 1.634A63.317 63.317 0 0128.13 49.064a63.317 63.317 0 016.712-28.371z" fill="#1558ae"/><circle cx="48.782" cy="99.92" r="10.391" fill="#2f7ae5" paint-order="stroke fill markers"/><path d="M67.689 10.334a57.399 57.399 0 00-27.9 7.262 64.912 64.912 0 0114.77-1.703 64.912 64.912 0 0164.912 64.912 64.912 64.912 0 01-1.82 15.264 57.399 57.399 0 007.481-28.336 57.399 57.399 0 00-57.399-57.399 57.399 57.399 0 00-.044 0z" fill="#3e88ef"/><circle r="57.399" cy="67.733" cx="67.733" fill="none" stroke="#144b98" stroke-width="2.646"/><circle cx="28.004" cy="64.152" r="5.807" fill="#2f7ae5" paint-order="stroke fill markers"/></g></svg>